<svg width="149" height="52" viewBox="0 0 149 52" fill="none" xmlns="http://www.w3.org/2000/svg">
<path fill-rule="evenodd" clip-rule="evenodd" d="M34.2111 12.9302C34.1516 12.9302 34.092 12.9298 34.032 12.9291C32.6095 12.9093 31.2846 12.4265 29.8818 11.9154C29.0622 11.6165 28.2152 11.3091 27.3076 11.0781C27.0357 12.47 28.2832 13.6682 30.2553 13.6443C30.9369 13.636 31.1808 13.4439 31.7621 13.4439C32.1253 13.4439 32.3953 13.7033 32.3953 14.0231C32.3953 14.4321 32.115 14.7353 31.5338 14.7353C31.2928 14.7353 30.9642 14.6692 30.7712 14.5542C30.1482 14.5542 29.9465 14.9093 29.8851 15.3101C29.7206 15.4124 29.6179 15.593 29.6179 15.7903L29.6177 16.1892C29.6177 16.1892 30.0341 15.9352 30.4721 15.9352C30.4879 15.9352 31.23 15.9343 31.23 15.9343C31.0483 16.1634 30.7745 16.3148 30.4646 16.3355C30.1885 16.6326 30.0988 17.0613 30.3012 17.4317C30.2172 17.5987 30.2193 17.7989 30.3137 17.9651L30.5105 18.312C30.5105 18.312 30.7449 17.8619 31.1469 17.6373C31.3554 17.5206 31.8445 17.2372 31.8445 17.2372C31.6819 17.6603 31.8513 18.0792 32.2077 18.2935C32.2286 18.471 32.3315 18.6319 32.4918 18.7217L32.8399 18.9169C32.8399 18.9169 32.8571 18.3344 33.0802 17.9595C33.3033 17.5846 33.8682 16.6227 33.8682 16.6227H34.7824L34.7925 14.7593C34.7925 14.1946 35.1312 13.6584 35.6987 12.8357C35.2107 12.898 34.7191 12.9302 34.2111 12.9302Z" fill="#E1261C"/>
<path fill-rule="evenodd" clip-rule="evenodd" d="M38.9696 9.20796C38.3356 9.20796 37.8782 9.13529 37.395 8.73759L36.9389 8.30249L38.8851 8.28085C38.8851 8.28085 42.2676 8.09529 43.2248 6.07502C43.5198 5.45295 43.6483 4.75303 43.5492 4.0804C43.4529 3.40306 43.1403 2.75958 42.6729 2.26827C42.2078 1.77462 41.4754 1.24662 40.1444 1.23086C36.8259 1.19206 34.5751 3.527 30.6303 3.74314C28.1705 3.8779 24.2997 3.8572 21.1396 3.84544C20.8795 3.8445 20.688 3.63942 20.7209 3.38589C20.7355 3.19162 20.9113 3.01006 21.1168 3.00018L30.1949 2.93386C31.6184 2.93386 32.7632 1.63774 32.7632 0.0546875C32.3765 0.468853 31.9093 0.639835 31.52 0.702395C31.5629 0.493783 31.588 0.277645 31.588 0.0546875C31.0453 0.5594 29.968 0.7158 29.5093 0.7158H28.6132C27.8956 0.7158 27.2203 1.05071 26.767 1.57306C26.767 1.57306 21.1521 1.5787 21.0231 1.5787C19.8475 1.5787 19.344 2.59213 19.2729 3.20385C19.1651 4.12955 19.702 5.22623 21.1031 5.3196C23.8118 5.34006 30.2152 5.34006 31.4812 5.2053C33.1827 5.0242 34.3162 4.59828 35.304 4.29912C36.6263 3.89883 38.2141 2.85648 40.1055 2.90328C41.4984 2.93762 41.7886 3.98844 41.8324 4.31464C41.8778 4.64414 41.8157 4.98116 41.6698 5.27586C40.982 6.66558 37.8342 6.83727 34.5958 6.60349C29.1426 6.20979 24.8029 5.72083 19.3584 6.62466C18.6294 6.74554 17.9455 6.93793 17.3064 7.1797C17.3413 7.74345 17.2813 8.55484 16.8875 9.517L16.7225 9.92034L16.3247 9.74184C16.2833 9.72326 16.2398 9.70397 16.1948 9.68445C15.9394 10.0798 15.6539 10.4232 15.3432 10.7087L15.1232 10.911L14.8593 10.7703C14.7186 10.6953 14.5769 10.6572 14.438 10.6572C14.1156 10.6572 13.8188 10.8714 13.6818 11.2028C13.0625 12.701 12.536 12.748 11.1283 12.8731C11.0398 12.8809 10.7013 12.9119 10.7013 12.9119C10.7013 12.9119 10.1134 12.5248 10.019 12.4618C8.29634 12.4107 6.07871 12.0373 5.13183 11.7339C4.62038 11.5702 4.27415 11.0572 4.27415 10.4886C4.27415 10.4161 4.28168 10.3453 4.29298 10.2759C4.15388 9.89894 3.73328 9.66422 3.34869 9.72655C3.19617 9.56098 2.9601 9.50147 2.74732 9.57485L2.37003 9.70515C2.37003 9.70515 2.83229 10.1365 2.9568 10.4904L3.14557 11.0285C2.88078 10.9222 2.66047 10.7327 2.51149 10.4935C2.13537 10.3068 1.67028 10.3794 1.36996 10.6936C1.15459 10.6278 0.920404 10.6958 0.77377 10.8667L0.51416 11.1697C0.51416 11.1697 1.01102 11.2303 1.41185 11.5542C1.41938 11.5589 1.98827 12.0399 1.98827 12.0399C1.56555 12.0657 1.19602 12.3621 1.09575 12.7889C0.876626 12.8386 0.707632 13.0128 0.665031 13.2334L0.589242 13.625C0.589242 13.625 1.4601 13.4402 1.9113 13.5352L3.31244 13.9649C3.31244 13.9649 4.77572 13.9653 5.30059 13.9653C5.88642 13.9653 6.36139 14.4397 6.36139 15.0251C7.12633 15.3377 8.56513 15.9035 10.2579 17.4007C10.6291 17.0976 10.9169 16.7787 11.1972 16.4129C11.6331 16.5141 12.1105 16.5842 12.4061 16.623C13.6411 15.9282 15.4157 14.1652 16.9103 12.9933C17.8737 12.2381 19.2348 11.3108 21.0055 10.7468C21.2121 11.2082 21.5414 11.57 21.8502 11.7906C22.8343 11.112 24.764 9.99631 27.3564 10.629C29.8873 11.2734 31.8081 12.4837 34.167 12.49C35.3838 12.4935 36.5545 12.3002 37.6511 11.9512C38.1284 11.8176 38.3412 11.7273 38.9619 11.7273C39.5529 11.7273 40.0318 12.2059 40.0318 12.7965C40.0318 13.3868 39.5529 13.8654 38.9619 13.8654C38.5439 13.8654 38.1826 13.6253 38.0065 13.2758C37.5318 13.0246 37.082 13.1429 36.8167 13.4188C36.5828 13.4058 36.3629 13.5324 36.257 13.7417L36.0694 14.1128C36.0694 14.1128 36.6475 14.1048 36.9186 14.2581L37.5346 14.5968C37.4209 14.638 37.299 14.6615 37.1712 14.6615C37.021 14.6615 36.8791 14.6293 36.7497 14.5735C36.2594 14.6464 35.8833 15.0561 35.8833 15.5514C35.8833 15.5514 35.8821 16.0253 35.8811 16.039C35.6936 16.1429 35.5747 16.3403 35.5761 16.5576L35.5787 16.9734C35.5787 16.9734 36.2293 16.6411 36.8758 16.6411L40.4986 16.6408L41.3181 14.8384H42.1221C42.1221 14.8384 42.1186 13.7271 42.1186 13.7043C42.1186 12.911 42.7438 12.2593 43.5428 12.1859C43.2244 10.0147 41.2988 9.20796 38.9696 9.20796Z" fill="#E1261C"/>
<path fill-rule="evenodd" clip-rule="evenodd" d="M15.609 5.54838L15.586 5.60059C15.5453 5.68526 15.1825 6.36707 14.4611 6.40493L14.4113 6.41128C14.4042 6.41152 14.3971 6.41152 14.3901 6.41152C13.9398 6.41152 13.5225 6.09354 13.5225 6.09354C13.5225 6.09354 13.5218 6.09307 13.5202 6.09307C13.507 6.09307 13.4413 6.11871 13.3603 6.59496C13.2994 7.01501 13.0301 7.01948 13.0188 7.01948C13.0186 7.01948 13.0183 7.01948 13.0183 7.01948C13.0183 7.01948 12.9873 6.38 13.1671 5.9275C13.3596 5.43596 13.7984 5.40092 13.9198 5.40092C13.94 5.40092 13.9513 5.40186 13.9513 5.40186H13.9546C13.8996 5.47994 13.861 5.57472 13.8645 5.67514C13.8701 5.92656 14.0759 6.12318 14.3253 6.12318C14.3305 6.12318 14.3357 6.12318 14.3409 6.12294C14.6043 6.11777 14.8041 5.90516 14.7984 5.65539C14.7977 5.5806 14.7737 5.51545 14.7403 5.45407L15.5803 5.49664L15.6345 5.49617L15.609 5.54838ZM12.8512 9.25729C12.1119 9.6056 12.5109 10.5226 12.2353 10.9772C12.0715 11.2479 11.8658 11.3646 11.5645 11.3646C11.4266 11.3646 11.2686 11.3401 11.0857 11.2947C10.5025 11.1506 10.2462 10.9386 10.2252 10.48C10.2012 9.95133 10.9937 9.32902 10.51 8.67826C10.0899 8.11287 10.1422 7.82147 10.1422 7.82147C10.1422 7.82147 10.2893 7.95388 10.5818 8.12298C10.6273 8.14814 10.8132 8.24763 11.0281 8.30055C11.1105 8.32101 11.1968 8.33465 11.2813 8.33465C11.4915 8.33465 11.6885 8.25069 11.7754 7.97834C11.8319 7.80924 11.7059 7.69847 11.5956 7.61286C11.5353 7.56652 11.3075 7.432 11.2583 7.36967C11.1293 7.20786 11.2578 6.99808 11.2578 6.99808C11.2578 6.99808 11.5377 7.3779 12.0545 7.50585C12.1783 7.53642 12.2937 7.54795 12.3977 7.54795C12.7279 7.54795 12.9426 7.43082 12.9426 7.43082C12.9426 7.43082 12.9548 7.67542 12.7634 7.75797C12.69 7.78995 12.4827 7.80077 12.4073 7.81347C12.2687 7.8377 12.1047 7.8765 12.0731 8.05195C11.9969 8.44519 12.2892 8.61264 12.5766 8.68367C12.7618 8.72953 12.9447 8.73517 13.0249 8.73517C13.0376 8.73517 13.0478 8.73494 13.0551 8.73494C13.394 8.722 13.5875 8.67379 13.5875 8.67379C13.5875 8.67379 13.4933 8.95484 12.8512 9.25729ZM9.82065 4.18288L9.82324 4.12149L9.82606 4.06223L9.87643 4.09492L10.6348 4.45264C10.5719 4.49239 10.5195 4.54107 10.4837 4.6001C10.353 4.81836 10.4272 5.10035 10.6517 5.22876C10.7252 5.27156 10.8057 5.29179 10.8857 5.29179C11.0457 5.29179 11.2023 5.21041 11.2893 5.06507C11.3444 4.97334 11.3536 4.87551 11.3461 4.77884H11.3494C11.3494 4.77884 11.8615 5.00533 11.7747 5.61635C11.7066 6.09778 11.367 6.64576 11.367 6.64576C11.367 6.64576 11.1227 6.51759 11.279 6.10718C11.46 5.59965 11.3823 5.59024 11.3823 5.59024C11.3823 5.59024 11.2884 5.60459 11.15 5.60459C10.9577 5.60459 10.679 5.57684 10.4481 5.44443L10.4102 5.41879C9.79405 5.04014 9.81476 4.2706 9.82065 4.18288ZM16.8273 6.74125C17.3936 6.56745 17.81 6.29345 17.9528 5.93385C18.2932 5.06366 18.3242 4.27836 18.0536 3.32374C17.4976 3.00224 16.8617 2.9465 16.4891 2.9465C16.293 2.9465 16.1699 2.96202 16.1699 2.96202C15.8388 1.95753 14.5649 1.14261 13.727 0.78418C13.727 0.78418 13.6574 0.972565 13.4714 1.18682C13.4102 1.17177 13.365 1.16024 13.3594 1.15907C13.0299 1.07699 12.715 1.03983 12.4158 1.03983C11.6994 1.03983 11.0728 1.2515 10.5458 1.5603C10.5267 1.54713 9.73074 0.995378 8.79821 0.995378C8.7702 0.995378 8.74196 0.995849 8.71372 0.997025C8.02621 1.7127 7.68469 2.42062 7.57642 3.34867C7.53335 3.73461 7.77389 4.17347 8.19473 4.59375C8.1945 4.59422 8.1945 4.59469 8.19426 4.59493L8.22862 4.62244C7.98408 5.43314 7.67481 6.02675 7.18359 6.72197C7.35282 6.85508 7.53829 6.95574 7.76636 7.04253C7.77601 7.5844 7.85415 8.13709 8.03468 8.64933C8.03562 8.64933 8.03633 8.64933 8.03727 8.64933C8.88224 8.64933 9.36098 9.33231 9.29154 10.0456C9.15032 11.4932 9.44124 11.5737 10.8104 12.4791C12.4156 12.331 12.7366 12.3867 13.2923 11.0424C13.4891 10.5659 13.929 10.2361 14.4381 10.2361C14.6377 10.2361 14.8476 10.2869 15.058 10.3991C15.4429 10.0452 15.7625 9.6136 16.0209 9.15898C16.1744 9.21566 16.337 9.28598 16.4973 9.35795C16.9125 8.34288 16.9603 7.40989 16.8273 6.74125Z" fill="#E1261C"/>
<path fill-rule="evenodd" clip-rule="evenodd" d="M9.8638 38.8051L9.86898 38.807C11.6827 38.8442 13.2343 39.7936 13.9345 41.3548C15.0624 42.0063 17.007 43.1328 20.3555 44.2377C22.5138 44.3236 25.443 44.3052 29.2559 44.0181C29.0585 43.4623 29.0347 42.7873 29.2308 41.8835C29.3072 41.5312 29.2428 41.1775 29.0535 40.9131C28.8737 40.6617 28.5969 40.5072 28.2535 40.467L27.8929 40.4251L27.7585 40.0878C27.4763 39.3804 27.3881 38.723 27.3754 38.1337C26.4212 38.1003 22.8509 37.9048 20.0133 36.8065C19.6546 37.2543 19.3197 37.5163 19.2347 37.5798C16.5315 36.9288 13.8246 36.0501 11.9089 34.9596C11.6771 35.0306 11.4318 35.0708 11.1767 35.0708C9.86662 35.0708 8.79241 34.0647 8.68414 32.7836C8.66813 32.6778 8.67166 32.2055 8.69144 32.083C8.44595 31.4169 7.70242 31.0018 7.02268 31.1121C6.75319 30.8198 6.33612 30.7147 5.96 30.8443L5.29297 31.0743C5.29297 31.0743 6.11016 31.8365 6.33 32.4619L6.66375 33.4134C6.19584 33.2255 5.80607 32.8904 5.54316 32.4678C4.87825 32.1378 4.14673 32.1757 3.61574 32.7312C3.23515 32.615 2.82138 32.7347 2.56247 33.0371L2.10327 33.5724C2.10327 33.5724 2.98143 33.6799 3.68988 34.2521C3.70306 34.2604 4.70855 35.1106 4.70855 35.1106C3.96173 35.156 3.30859 35.6802 3.13112 36.4342C2.74418 36.5219 2.44526 36.83 2.36994 37.2197L2.23602 37.9119C2.23602 37.9119 4.23688 37.6428 5.03453 37.8108L7.79822 38.8096C7.79822 38.8096 8.93975 38.807 9.8638 38.8051Z" fill="#E1261C"/>
<path fill-rule="evenodd" clip-rule="evenodd" d="M33.8731 40.0708C33.5641 40.31 33.1273 40.3768 32.6125 40.247C32.5407 40.2288 32.4713 40.2081 32.4049 40.1858C32.9169 40.9774 32.5363 41.7322 32.2555 42.2893C32.1244 42.5497 31.9886 42.8187 31.9956 42.9937C32.0095 43.3303 32.0804 43.5666 32.9081 43.7752C33.7357 43.9841 33.9134 43.8103 34.0902 43.5217C34.182 43.3717 34.1947 43.0716 34.2067 42.7813C34.2328 42.1602 34.2681 41.3182 35.1041 40.8664C35.0352 40.8544 34.9638 40.8396 34.8921 40.8215C34.3773 40.6919 34.0268 40.4269 33.8731 40.0708Z" fill="#E1261C"/>
<path fill-rule="evenodd" clip-rule="evenodd" d="M38.9862 36.1446L38.9553 36.2138C38.9005 36.3264 38.4142 37.2307 37.4549 37.2768L37.3883 37.285C36.7789 37.2959 36.2086 36.857 36.2086 36.857C36.2086 36.857 36.1135 36.814 35.99 37.5231C35.9045 38.0932 35.5326 38.0849 35.5326 38.0849C35.5326 38.0849 35.495 37.2347 35.7369 36.6343C36.0391 35.873 36.7829 35.9398 36.7829 35.9398H36.7871C36.7135 36.0435 36.6615 36.1693 36.6657 36.3027C36.6718 36.6442 36.9554 36.9106 37.2965 36.901C37.6467 36.8958 37.9138 36.6143 37.9077 36.282C37.9073 36.183 37.8755 36.0957 37.8315 36.0143L38.9483 36.0755H39.0203L38.9862 36.1446ZM35.4091 41.2261C34.3174 41.7346 34.899 43.0885 34.4902 43.7567C34.1355 44.3364 33.6518 44.4336 32.7937 44.2172C31.9353 44.0008 31.5587 43.6869 31.5312 43.0107C31.4994 42.2313 32.671 41.3195 31.9626 40.3573C31.3471 39.5217 31.4259 39.0925 31.4259 39.0925C31.4259 39.0925 31.642 39.2886 32.072 39.5396C32.1389 39.577 32.4124 39.7247 32.7285 39.8044C33.1512 39.9109 33.6499 39.8961 33.8319 39.334C33.9164 39.0849 33.7316 38.9212 33.5692 38.7942C33.4809 38.7258 33.3444 38.6505 33.2722 38.5581C33.0834 38.3192 33.274 38.0106 33.274 38.0106C33.274 38.0106 33.4856 38.4478 34.2464 38.6395C35.0071 38.8312 35.4065 38.548 35.4065 38.548C35.4065 38.548 35.4227 38.9088 35.1403 39.0292C35.032 39.0758 34.8753 39.0772 34.7646 39.0953C34.5599 39.1301 34.3179 39.1863 34.2704 39.4445C34.155 40.0236 34.585 40.2724 35.0078 40.3789C35.3239 40.4587 35.636 40.4587 35.7127 40.4575C36.2124 40.4406 36.4979 40.3709 36.4979 40.3709C36.4979 40.3709 36.3571 40.7846 35.4091 41.2261ZM32.0744 35.9414C31.257 35.4341 31.289 34.4111 31.2977 34.2944L31.3014 34.2128L31.3054 34.1342L31.3723 34.1775L32.3782 34.6578C32.2947 34.7104 32.2245 34.7749 32.1765 34.8532C32.0017 35.143 32.0986 35.5181 32.3966 35.6902C32.6882 35.8617 33.0705 35.7655 33.2451 35.4762C33.3188 35.3546 33.3317 35.2246 33.3225 35.0959H33.3268C33.3268 35.0959 34.0065 35.4003 33.8874 36.2121C33.7937 36.8518 33.339 37.5786 33.339 37.5786C33.339 37.5786 33.0149 37.4066 33.2253 36.8619C33.4689 36.1881 33.3656 36.1752 33.3656 36.1752C33.3656 36.1752 32.6508 36.2808 32.1245 35.976L32.0744 35.9414ZM42.3147 36.2994C42.7102 35.2885 42.7464 34.376 42.4317 33.2669C41.506 32.7313 40.3315 32.8165 40.1915 32.8289C39.4769 31.7059 38.511 30.7551 36.7904 30.3263V30.3265C36.7902 30.3263 36.7902 30.3261 36.79 30.3261C36.7596 30.3186 36.002 30.1299 35.9714 30.1224C34.2518 29.6941 32.9525 30.0798 31.7948 30.7353C31.6644 30.6506 30.685 30.038 29.6249 30.0763C28.8261 30.9079 28.4295 31.7306 28.3033 32.8085C28.2626 33.1754 28.5232 33.6657 28.8868 34.0992C27.6702 35.3358 27.3531 36.4363 27.2778 37.3641C27.6417 37.3916 27.9917 37.4577 27.999 37.4593C27.9557 38.2122 27.9825 39.0052 28.3245 39.8627C29.4531 39.9946 30.0469 40.9954 29.8262 42.0126C29.3495 44.209 30.2449 44.6796 32.302 46.1345C34.7971 45.817 35.813 45.8195 36.4244 43.6563C36.7074 42.6549 37.7018 42.0495 38.7602 42.4625C40.9002 40.7284 41.2655 38.6531 41.3577 38.1482C41.358 38.1482 41.3582 38.148 41.3584 38.148C41.0906 37.9351 40.9122 37.6218 40.8606 37.2839C41.5128 37.0807 42.15 36.7138 42.3147 36.2994Z" fill="#E1261C"/>
<path fill-rule="evenodd" clip-rule="evenodd" d="M11.8061 8.47754C11.5971 8.64099 11.301 8.68756 10.9512 8.60101C10.9025 8.58902 10.8552 8.57491 10.8102 8.56009C11.16 9.09585 10.9042 9.60926 10.7152 9.98792C10.6269 10.165 10.5358 10.348 10.541 10.4668C10.5513 10.6951 10.6001 10.8553 11.1626 10.9943C11.7246 11.1333 11.8449 11.015 11.964 10.8186C12.0257 10.7165 12.0332 10.5129 12.0407 10.3158C12.0565 9.89431 12.0779 9.3228 12.6438 9.01377C12.5969 9.00577 12.5484 8.99613 12.4997 8.98413C12.1502 8.89759 11.9115 8.71884 11.8061 8.47754Z" fill="#E1261C"/>
<path fill-rule="evenodd" clip-rule="evenodd" d="M34.9028 27.0404C37.1475 26.797 39.8559 27.7932 41.4773 29.7225C41.9222 29.8666 42.5685 30.0719 43.2803 30.2836C43.3167 29.7314 43.336 29.1714 43.336 28.6032V24.8813C40.0489 24.9336 37.1398 25.684 34.9028 27.0404Z" fill="#E1261C"/>
<path fill-rule="evenodd" clip-rule="evenodd" d="M21.6525 22.9907C21.3717 23.2078 20.9774 23.265 20.5152 23.141C20.4509 23.1238 20.3883 23.1041 20.329 23.0832C20.7816 23.8143 20.4304 24.5035 20.1715 25.0122C20.0505 25.2499 19.9253 25.4957 19.9298 25.6561C19.9387 25.9654 19.9999 26.1829 20.7432 26.3819C21.4865 26.5806 21.6485 26.4231 21.8106 26.1596C21.8949 26.023 21.9095 25.7476 21.9236 25.4814C21.954 24.9115 21.9949 24.1391 22.7528 23.732C22.6907 23.7205 22.6269 23.7064 22.5622 23.6892C22.1001 23.5655 21.7871 23.319 21.6525 22.9907Z" fill="#E1261C"/>
<path fill-rule="evenodd" clip-rule="evenodd" d="M26.009 19.5365L25.9826 19.5953C25.9356 19.6906 25.5204 20.4561 24.718 20.4874L24.6625 20.494C24.1531 20.498 23.681 20.1195 23.681 20.1195C23.681 20.1195 23.6021 20.0822 23.4915 20.6847C23.4145 21.1692 23.1041 21.1593 23.1041 21.1593C23.1041 21.1593 23.081 20.4354 23.2893 19.926C23.5494 19.2804 24.1701 19.3437 24.1701 19.3437H24.1736C24.111 19.4314 24.0663 19.5379 24.0686 19.6518C24.0703 19.9422 24.3047 20.1715 24.5897 20.1661C24.8823 20.1647 25.1082 19.9272 25.1066 19.6445C25.1071 19.5598 25.0814 19.4857 25.0456 19.4159L25.9779 19.4775L26.0382 19.4777L26.009 19.5365ZM23.0231 24.0653C22.0343 24.5218 22.5434 25.7697 22.168 26.3793C21.8423 26.908 21.4057 26.9927 20.6349 26.7862C19.864 26.5799 19.5284 26.2883 19.5107 25.6679C19.4905 24.9524 20.556 24.126 19.928 23.2365C19.3827 22.4639 19.4585 22.0709 19.4585 22.0709C19.4585 22.0709 19.651 22.2527 20.0356 22.4872C20.0954 22.5222 20.3402 22.66 20.624 22.736C21.0037 22.8376 21.453 22.8287 21.6232 22.3146C21.7018 22.0869 21.537 21.9347 21.3923 21.8167C21.3134 21.7532 21.1913 21.6826 21.1272 21.5972C20.9597 21.3762 21.1348 21.0949 21.1348 21.0949C21.1348 21.0949 21.3207 21.4982 22.0038 21.681C22.687 21.8639 23.0497 21.6076 23.0497 21.6076C23.0497 21.6076 23.0608 21.9387 22.8047 22.0467C22.7068 22.0885 22.5656 22.0883 22.4655 22.1041C22.281 22.1339 22.0624 22.1833 22.0167 22.4199C21.9068 22.95 22.2911 23.1824 22.671 23.284C22.9546 23.36 23.2357 23.363 23.3049 23.3625C23.7554 23.3517 24.0131 23.2903 24.0131 23.2903C24.0131 23.2903 23.882 23.6688 23.0231 24.0653ZM19.6035 17.8968L19.6075 17.8274L19.6117 17.7604L19.667 17.798L20.5028 18.2152C20.4324 18.2592 20.3731 18.3135 20.3324 18.3799C20.1832 18.6249 20.2606 18.9453 20.5078 19.0944C20.7497 19.2428 21.0698 19.1642 21.219 18.9191C21.2816 18.8164 21.2936 18.7058 21.2873 18.5962H21.2908C21.2908 18.5962 21.8559 18.8611 21.7481 19.5511C21.6634 20.0949 21.2762 20.7096 21.2762 20.7096C21.2762 20.7096 21.0072 20.5605 21.1884 20.0986C21.3986 19.5271 21.3125 19.5153 21.3125 19.5153C21.3125 19.5153 20.7142 19.5991 20.2776 19.3352L20.2359 19.3053C19.558 18.8667 19.595 17.996 19.6035 17.8968ZM28.1115 19.597L28.2054 19.4907C28.961 18.6369 29.1573 17.4403 29.2083 16.8735C29.0022 16.8895 28.7291 16.8939 28.4493 16.8507L28.2405 16.8184L28.2118 16.6091C28.2099 16.5948 28.0131 15.2577 27.0693 14.2417C26.7403 14.7135 26.1504 15.0209 25.3846 14.8069C24.6474 14.5679 24.2063 13.7848 24.3953 13.0268C24.4236 12.9129 24.465 12.804 24.5177 12.702C22.977 12.7142 21.9861 13.5917 21.975 13.6016L21.8465 13.7177L21.6841 13.6568C21.6396 13.6399 20.7361 13.2904 20.3286 12.5815C19.9709 12.8849 19.3601 13.5014 19.1005 14.3494L19.0369 14.5571L18.8197 14.5496C18.2358 14.5275 17.9062 14.6787 17.2879 14.9776C17.7883 16.1009 17.5082 17.1969 17.0497 17.8777C16.6774 18.4311 16.1676 18.775 15.6333 18.8488C15.9162 19.6675 16.4234 20.0934 16.4293 20.0981L16.6108 20.2477L16.498 20.4542C15.8675 21.5961 15.871 22.6459 15.9223 23.1441C16.627 22.966 17.0893 22.9921 17.0893 22.9921C17.0893 22.9921 16.596 24.2739 17.3764 25.4861C17.42 25.5536 17.4546 25.6269 17.4932 25.6991C17.9816 26.6133 17.9825 27.643 17.8855 28.5663C18.3746 28.5602 18.8037 28.1719 18.8037 28.1719L18.8696 28.6237C18.9955 29.4885 19.2634 30.009 19.9137 30.5696C20.078 30.012 20.4722 29.1491 21.3428 29.1105C21.7976 29.0929 22.169 29.3427 22.377 29.524C23.6911 28.6705 24.24 27.4581 24.6344 26.269L24.7317 25.9764C24.7317 25.9764 25.3481 26.1796 25.7221 26.4442C26.9775 25.1613 27.071 22.4679 27.071 22.4679C27.071 22.4679 27.6759 22.6337 28.1198 22.848C28.4001 21.82 28.4001 20.99 28.1402 19.7357L28.1115 19.597Z" fill="#E1261C"/>
<path fill-rule="evenodd" clip-rule="evenodd" d="M43.3179 24.3194C43.3179 23.0792 43.3179 19.2382 43.3179 18.7621C39.0139 18.5707 33.2079 19.2516 28.8174 20.3414C29.0991 22.2213 28.4577 23.63 28.4577 23.63L27.8752 23.3537C27.7679 23.302 27.6735 23.261 27.5932 23.2291C27.3461 25.8488 25.8122 27.1814 25.8122 27.1814C25.8122 27.1814 25.4923 26.8996 25.0682 26.7371C24.6615 27.8801 24.0356 29.1165 22.6832 29.9949L22.3271 30.2261L22.007 29.947C21.8891 29.8439 21.6749 29.668 21.3678 29.6718C20.8259 29.6779 20.5913 30.2586 20.4529 30.7282L20.2571 31.4921C20.2571 31.4921 20.0739 31.4004 19.5462 30.9949C19.0186 30.5893 18.5542 29.8769 18.3788 29.0709C17.8189 29.2219 17.2448 29.1802 17.2448 29.1802C17.2448 29.1802 17.4527 27.9321 17.3418 27.1158C14.5638 27.0224 10.6696 26.4909 8.30323 25.5555C7.5018 26.06 6.56904 25.4873 6.37651 25.3577C6.03217 25.0318 5.81139 24.5826 5.81139 24.0701C5.81139 23.9671 5.82199 23.8666 5.83776 23.7681C5.64075 23.2335 5.04386 22.9 4.49805 22.9887C4.28174 22.754 3.94682 22.6695 3.64484 22.7737L3.10938 22.9584C3.10938 22.9584 3.76558 23.5703 3.94211 24.0724L4.20996 24.8363C3.83407 24.6856 3.52127 24.4163 3.31015 24.0769C2.77633 23.8121 2.18909 23.8427 1.76284 24.2886C1.4571 24.1952 1.125 24.2914 0.916934 24.5341L0.548584 24.964C0.548584 24.964 1.25351 25.0503 1.82239 25.5097C1.83298 25.5163 2.64006 26.1988 2.64006 26.1988C2.04058 26.2357 1.51618 26.6562 1.37355 27.2616C1.0631 27.3321 0.823022 27.5793 0.762533 27.8924L0.65497 28.4479C0.65497 28.4479 2.26159 28.232 2.90178 28.367L5.04998 29.1598C5.04998 29.1598 7.1697 29.164 7.43966 29.164C8.61674 29.164 9.62222 29.9096 9.82252 31.0683C9.8237 31.0759 12.1988 31.2033 14.4343 32.2414C15.6027 32.8092 16.9464 33.6822 18.2804 35.0247C18.7309 34.6735 19.1927 34.0884 19.5279 33.6154C21.1449 34.0239 21.8714 34.1794 22.6529 34.2793C23.8492 33.4675 25.538 31.5166 26.9565 30.201C27.5132 29.6845 28.2151 29.0913 29.0732 28.5434C29.5166 28.4714 30.4901 28.4211 31.7529 28.9907C32.1214 28.5819 32.8812 27.8378 32.8812 27.8378C35.3326 25.628 39.0217 24.3892 43.3179 24.3194Z" fill="#E1261C"/>
<path fill-rule="evenodd" clip-rule="evenodd" d="M9.0836 11.6236C8.81764 11.1951 8.8054 10.6864 8.87177 10.0048C8.89696 9.74706 8.82046 9.4994 8.6623 9.32489C8.51095 9.15838 8.29489 9.07042 8.03598 9.07042L7.73636 9.07113L7.63703 8.7889C7.48099 8.34604 7.38637 7.85403 7.3553 7.32345C6.73205 7.0003 6.48397 6.78322 6.06337 6.53721C6.09726 6.30203 6.11044 6.05673 6.09703 5.81072C6.01371 5.82648 5.92803 5.83565 5.84001 5.83565C5.08142 5.83565 4.46664 5.2211 4.46664 4.46309C4.46664 4.07033 4.63234 3.71708 4.89689 3.46707C5.08565 2.74458 4.58997 2.47058 4.58997 2.47058C4.61704 2.23445 4.4817 2.05736 4.29411 1.8892C4.29411 1.8892 4.07499 1.70387 3.93212 1.65519C3.93212 1.65613 3.90882 2.32241 3.7097 2.67919C3.51034 3.03597 3.39901 3.21542 3.39901 3.21542C3.33899 3.09571 3.30463 2.96142 3.30463 2.81866C3.30463 2.66414 3.34511 2.51974 3.41455 2.39321C3.39431 1.84075 3.14552 1.61426 2.73457 1.62743C2.6376 1.4113 2.42224 1.27254 2.18522 1.27394L1.76392 1.27677C1.76392 1.27677 2.0779 1.83205 2.0779 2.25774C2.0779 2.27279 2.07696 2.29207 2.07531 2.31348C1.8743 1.89508 1.59445 1.62814 1.24234 1.62814L0.820801 1.63073C0.820801 1.63073 1.13502 2.18601 1.13502 2.61193C1.13502 3.03786 1.1369 5.95019 1.1369 5.95019C1.61163 6.19125 2.41518 6.59883 2.65125 6.71972C2.94711 6.87118 3.13022 7.19903 3.13375 7.55534C3.1354 7.72773 3.09257 7.89001 3.01607 8.03136C3.64403 8.60287 5.61194 10.5109 7.92277 11.8924C8.42104 11.9585 8.93814 12.0077 9.43618 12.0291C9.29284 11.9023 9.17563 11.7723 9.0836 11.6236Z" fill="#E1261C"/>
<path fill-rule="evenodd" clip-rule="evenodd" d="M16.9972 25.9636C16.9597 25.894 16.9221 25.8258 16.8844 25.7578C16.5829 25.2136 16.272 24.6529 16.3942 23.6221C16.2972 23.635 16.1847 23.6554 16.0661 23.6867L15.4306 23.8549L15.363 23.2013C15.3167 22.7516 15.3082 21.955 15.6257 21.0352C14.993 20.9722 12.8166 20.6848 11.0179 19.5978C10.7922 19.88 10.7338 20.0032 10.5274 20.1643C9.11402 19.809 7.97602 19.3823 7.1334 18.8228C6.94605 19.0422 6.66761 19.1819 6.35622 19.1819C5.79205 19.1819 5.33449 18.7247 5.33449 18.161C5.33449 17.7854 5.53785 17.4582 5.84006 17.2809C5.96951 16.4535 5.39263 16.1346 5.39263 16.1346C5.42864 15.8195 5.24811 15.5836 4.99792 15.3592C4.99792 15.3592 4.70583 15.112 4.51541 15.0473C4.51541 15.0485 4.48435 15.9371 4.21862 16.4126C3.95312 16.8882 3.80437 17.1276 3.80437 17.1276C3.72482 16.9681 3.67868 16.7889 3.67868 16.5984C3.67868 16.3926 3.73282 16.2 3.82532 16.0314C3.79825 15.2948 3.42472 14.9925 2.87679 15.0104C2.74781 14.7221 2.46066 14.537 2.14433 14.5391L1.5825 14.5426C1.5825 14.5426 2.00122 15.283 2.00122 15.8507C2.00122 15.9208 1.98804 16.0441 1.96521 16.2061C1.82117 15.9686 1.5625 15.8199 1.27935 15.8216L0.717529 15.8251C0.717529 15.8251 1.13648 16.894 1.13648 17.4618C1.13648 18.0102 1.13742 20.6196 1.13766 20.7974L5.75745 22.2921C6.44378 22.5162 6.94323 23.1564 6.95076 23.9179C6.95099 23.9508 6.95029 23.9835 6.94864 24.016C7.73241 24.4661 9.07801 25.0082 11.3844 25.8446C12.8954 26.1583 14.9003 26.4636 17.2302 26.5501C17.1737 26.3502 17.0984 26.1531 16.9972 25.9636Z" fill="#E1261C"/>
<path fill-rule="evenodd" clip-rule="evenodd" d="M32.7962 46.6866C32.6618 46.7033 32.1435 46.7686 32.1435 46.7686C32.1435 46.7686 31.713 46.4648 31.6005 46.3858C30.7068 45.758 29.9887 45.2529 29.554 44.6066C26.8638 44.8159 24.5913 44.8961 22.6888 44.8961C19.1889 44.8961 16.9395 44.6242 15.6276 44.381C15.383 44.4692 15.1199 44.5181 14.845 44.5181C13.5721 44.5181 12.5403 43.4871 12.5403 42.2152C12.5403 41.9802 12.5758 41.7535 12.641 41.54C12.4595 40.8687 11.7706 40.3988 11.0977 40.4468C10.8602 40.1382 10.4624 39.999 10.084 40.0928L9.4127 40.2589C9.4127 40.2589 10.1435 41.0743 10.3033 41.7041L10.4224 42.1745C10.0167 41.9344 9.69773 41.5755 9.5019 41.1519C8.8956 40.7504 8.17961 40.6985 7.59543 41.174C7.23955 41.0148 6.82272 41.0813 6.53416 41.3436L6.02271 41.8088C6.02271 41.8088 6.99665 42.0353 7.50717 42.6583C7.56201 42.7258 7.67169 42.8636 7.83527 43.0588C7.45609 42.9704 7.0602 43.1143 6.82672 43.4259L6.41247 43.9791C6.41247 43.9791 7.41184 44.0179 8.03086 44.533C8.36908 44.8171 9.7674 46.2141 12.8283 47.9867C13.3019 48.0801 14.2589 48.2524 14.97 48.3733C15.3145 48.7837 15.565 49.2035 15.6156 49.5542L18.9653 49.5258C19.0948 49.5262 19.2254 49.5309 19.3572 49.5476C21.5141 49.8172 22.2169 51.7662 22.2169 51.7662C26.8882 50.5102 30.8278 48.7532 33.9956 46.5198C33.6282 46.5831 33.2293 46.6327 32.7962 46.6866Z" fill="#E1261C"/>
<path fill-rule="evenodd" clip-rule="evenodd" d="M66.8119 8.30176L73.1871 18.4783V8.30176H76.1673V24.4601H73.3424L67.0452 14.387V24.4601H64.0649V8.30176H66.8119Z" fill="#E1261C"/>
<path fill-rule="evenodd" clip-rule="evenodd" d="M119.506 8.30176L125.881 18.4783V8.30176H128.862V24.4601H126.037L119.74 14.387V24.4601H116.76V8.30176H119.506Z" fill="#E1261C"/>
<path fill-rule="evenodd" clip-rule="evenodd" d="M134.608 21.56H136.526C137.614 21.56 138.444 21.3528 138.962 20.5242C139.506 19.6437 139.636 18.2711 139.636 16.0961C139.636 14.387 139.48 12.9368 138.884 12.1083C138.418 11.4349 137.614 11.2019 136.526 11.2019H134.608V21.56ZM136.552 8.30176C141.735 8.30176 142.927 11.4091 142.927 16.3809C142.927 20.3688 141.968 24.4601 136.941 24.4601H131.395V8.30176H136.552Z" fill="#E1261C"/>
<path fill-rule="evenodd" clip-rule="evenodd" d="M55.8817 17.7532H61.4792V14.8531H55.8817V11.2277H61.2436L62.4315 8.30176H52.6682V24.4601H61.9716V21.56H55.8817V17.7532Z" fill="#E1261C"/>
<path fill-rule="evenodd" clip-rule="evenodd" d="M100.883 21.56H95.3509V8.30176H92.1372V24.4603H99.7134L100.883 21.56Z" fill="#E1261C"/>
<path fill-rule="evenodd" clip-rule="evenodd" d="M85.145 16.0441L84.0211 18.8407H86.7111V19.1255C86.7111 19.2433 86.7074 19.356 86.7003 19.4639C86.5939 21.0658 85.7059 21.6114 84.2492 21.6114C82.4352 21.6114 81.6576 20.6274 81.6576 19.022V13.7392C81.6576 12.1338 82.4352 11.1498 84.2492 11.1498C85.6772 11.1498 86.4475 11.6771 86.564 13.227C86.5744 13.3646 86.5815 13.5073 86.5815 13.6616V13.8947H89.7949V13.6099C89.7949 9.88098 87.8513 8.146 84.2492 8.146C80.5695 8.146 78.4443 10.0364 78.4443 13.7653V18.9959C78.4443 22.7248 80.5695 24.6153 84.2492 24.6153C87.8513 24.6153 89.9246 22.8544 89.9246 19.1516V16.0441H85.145Z" fill="#E1261C"/>
<path fill-rule="evenodd" clip-rule="evenodd" d="M107.331 18.2601H110.208L108.808 12.7963H108.756L107.331 18.2601ZM110.493 8.29053L115.287 24.4491H111.84L110.959 21.1087H106.554L105.699 24.4491H102.433L107.098 8.29053H110.493Z" fill="#E1261C"/>
<path fill-rule="evenodd" clip-rule="evenodd" d="M66.9049 38.9207C66.9049 40.5261 67.6566 41.5104 69.4965 41.5104C71.3364 41.5104 72.0879 40.5261 72.0879 38.9207V33.6382C72.0879 32.0328 71.3364 31.0487 69.4965 31.0487C67.6566 31.0487 66.9049 32.0328 66.9049 33.6382V38.9207ZM63.6917 33.6643C63.6917 29.9351 65.8165 28.0449 69.4965 28.0449C73.1765 28.0449 75.3014 29.9351 75.3014 33.6643V38.8948C75.3014 42.6237 73.1765 44.5139 69.4965 44.5139C65.8165 44.5139 63.6917 42.6237 63.6917 38.8948V33.6643Z" fill="#E1261C"/>
<path fill-rule="evenodd" clip-rule="evenodd" d="M80.4889 38.9207C80.4889 40.5261 81.2402 41.5104 83.0803 41.5104C84.9204 41.5104 85.6719 40.5261 85.6719 38.9207V33.6382C85.6719 32.0328 84.9204 31.0487 83.0803 31.0487C81.2402 31.0487 80.4889 32.0328 80.4889 33.6382V38.9207ZM77.2754 33.6643C77.2754 29.9351 79.4003 28.0449 83.0803 28.0449C86.7602 28.0449 88.8854 29.9351 88.8854 33.6643V38.8948C88.8854 42.6237 86.7602 44.5139 83.0803 44.5139C79.4003 44.5139 77.2754 42.6237 77.2754 38.8948V33.6643Z" fill="#E1261C"/>
<path fill-rule="evenodd" clip-rule="evenodd" d="M106.797 41.6393H109.026C110.633 41.6393 111.307 40.8107 111.307 39.4382C111.307 38.0656 110.685 37.3149 108.793 37.3149H106.797V41.6393ZM106.797 34.518H108.793C110.114 34.518 110.555 33.8449 110.555 32.6796C110.555 31.6438 110.063 30.9187 108.793 30.9187H106.797V34.518ZM108.741 28.1997C110.192 28.1997 111.67 28.4586 112.68 29.624C113.302 30.3491 113.665 31.3329 113.665 32.5243C113.665 33.8708 113.121 34.8548 112.291 35.554C113.924 36.3826 114.572 37.6773 114.572 39.4382C114.572 42.5974 113.069 44.3583 109.078 44.3583H103.584V28.1997H108.741Z" fill="#E1261C"/>
<path fill-rule="evenodd" clip-rule="evenodd" d="M102.156 28.1997H90.2725V31.1259H94.3928V44.3583H97.6065V31.1259H100.984L102.156 28.1997Z" fill="#E1261C"/>
<path fill-rule="evenodd" clip-rule="evenodd" d="M55.8817 31.1259H61.309L62.4908 28.1997H52.6682V44.3583H55.8817V37.6514H61.4792V34.7513H55.8817V31.1259Z" fill="#E1261C"/>
<path fill-rule="evenodd" clip-rule="evenodd" d="M138.867 41.4565H133.335V28.1982H130.121V44.3568H137.697L138.867 41.4565Z" fill="#E1261C"/>
<path fill-rule="evenodd" clip-rule="evenodd" d="M149 41.4565H143.467V28.1982H140.254V44.3568H147.83L149 41.4565Z" fill="#E1261C"/>
<path fill-rule="evenodd" clip-rule="evenodd" d="M120.602 38.1776H123.479L122.08 32.714H122.027L120.602 38.1776ZM123.764 28.208L128.558 44.3666H125.112L124.231 41.0262H119.825L118.97 44.3666H115.704L120.369 28.208H123.764Z" fill="#E1261C"/>
</svg>
